<svg version="1.0" preserveAspectRatio="xMidYMid meet" height="500" viewBox="0 0 375 374.999991" zoomAndPan="magnify" width="500" xmlns:xlink="http://www.w3.org/1999/xlink" xmlns="http://www.w3.org/2000/svg"><defs><g></g><clipPath id="563e166b07"><path clip-rule="nonzero" d="M 24.152344 259.851562 L 144.355469 259.851562 L 144.355469 269.742188 L 24.152344 269.742188 Z M 24.152344 259.851562"></path></clipPath><linearGradient id="f9760e3a53" y2="969.652328" gradientUnits="userSpaceOnUse" x2="2397.352348" y1="-713.847693" gradientTransform="matrix(0.0386379, 0, 0, 0.0386379, 24.152529, 259.852016)" x1="713.852267"><stop offset="0" stop-color="rgb(32.899475%, 46.299744%, 12.199402%)" stop-opacity="1"></stop><stop offset="0.00390625" stop-color="rgb(33.148193%, 46.603394%, 12.535095%)" stop-opacity="1"></stop><stop offset="0.0078125" stop-color="rgb(33.396912%, 46.907043%, 12.870789%)" stop-opacity="1"></stop><stop offset="0.0117188" stop-color="rgb(33.64563%, 47.210693%, 13.204956%)" stop-opacity="1"></stop><stop offset="0.015625" stop-color="rgb(33.894348%, 47.514343%, 13.540649%)" stop-opacity="1"></stop><stop offset="0.0195312" stop-color="rgb(34.143066%, 47.817993%, 13.876343%)" stop-opacity="1"></stop><stop offset="0.0234375" stop-color="rgb(34.391785%, 48.121643%, 14.212036%)" stop-opacity="1"></stop><stop offset="0.0273438" stop-color="rgb(34.640503%, 48.425293%, 14.547729%)" stop-opacity="1"></stop><stop offset="0.03125" stop-color="rgb(34.889221%, 48.728943%, 14.883423%)" stop-opacity="1"></stop><stop offset="0.0351562" stop-color="rgb(35.136414%, 49.032593%, 15.21759%)" stop-opacity="1"></stop><stop offset="0.0390625" stop-color="rgb(35.385132%, 49.337769%, 15.553284%)" stop-opacity="1"></stop><stop offset="0.0429688" stop-color="rgb(35.63385%, 49.641418%, 15.888977%)" stop-opacity="1"></stop><stop offset="0.046875" stop-color="rgb(35.882568%, 49.945068%, 16.22467%)" stop-opacity="1"></stop><stop offset="0.0507812" stop-color="rgb(36.131287%, 50.248718%, 16.560364%)" stop-opacity="1"></stop><stop offset="0.0546875" stop-color="rgb(36.380005%, 50.552368%, 16.896057%)" stop-opacity="1"></stop><stop offset="0.0585938" stop-color="rgb(36.628723%, 50.856018%, 17.230225%)" stop-opacity="1"></stop><stop offset="0.0625" stop-color="rgb(36.877441%, 51.159668%, 17.565918%)" stop-opacity="1"></stop><stop offset="0.0664062" stop-color="rgb(37.12616%, 51.463318%, 17.901611%)" stop-opacity="1"></stop><stop offset="0.0703125" stop-color="rgb(37.374878%, 51.766968%, 18.237305%)" stop-opacity="1"></stop><stop offset="0.0742187" stop-color="rgb(37.623596%, 52.070618%, 18.572998%)" stop-opacity="1"></stop><stop offset="0.078125" stop-color="rgb(37.872314%, 52.374268%, 18.908691%)" stop-opacity="1"></stop><stop offset="0.0820312" stop-color="rgb(38.121033%, 52.677917%, 19.242859%)" stop-opacity="1"></stop><stop offset="0.0859375" stop-color="rgb(38.369751%, 52.983093%, 19.578552%)" stop-opacity="1"></stop><stop offset="0.0898438" stop-color="rgb(38.618469%, 53.286743%, 19.914246%)" stop-opacity="1"></stop><stop offset="0.09375" stop-color="rgb(38.867188%, 53.590393%, 20.249939%)" stop-opacity="1"></stop><stop offset="0.0976563" stop-color="rgb(39.115906%, 53.894043%, 20.585632%)" stop-opacity="1"></stop><stop offset="0.101562" stop-color="rgb(39.364624%, 54.197693%, 20.921326%)" stop-opacity="1"></stop><stop offset="0.105469" stop-color="rgb(39.613342%, 54.501343%, 21.257019%)" stop-opacity="1"></stop><stop offset="0.109375" stop-color="rgb(39.862061%, 54.804993%, 21.592712%)" stop-opacity="1"></stop><stop offset="0.113281" stop-color="rgb(40.110779%, 55.108643%, 21.92688%)" stop-opacity="1"></stop><stop offset="0.117188" stop-color="rgb(40.359497%, 55.412292%, 22.262573%)" stop-opacity="1"></stop><stop offset="0.121094" stop-color="rgb(40.608215%, 55.715942%, 22.598267%)" stop-opacity="1"></stop><stop offset="0.125" stop-color="rgb(40.856934%, 56.021118%, 22.93396%)" stop-opacity="1"></stop><stop offset="0.128906" stop-color="rgb(41.105652%, 56.324768%, 23.269653%)" stop-opacity="1"></stop><stop offset="0.132812" stop-color="rgb(41.35437%, 56.628418%, 23.605347%)" stop-opacity="1"></stop><stop offset="0.136719" stop-color="rgb(41.601562%, 56.932068%, 23.939514%)" stop-opacity="1"></stop><stop offset="0.140625" stop-color="rgb(41.850281%, 57.235718%, 24.275208%)" stop-opacity="1"></stop><stop offset="0.144531" stop-color="rgb(42.098999%, 57.539368%, 24.610901%)" stop-opacity="1"></stop><stop offset="0.148438" stop-color="rgb(42.347717%, 57.843018%, 24.946594%)" stop-opacity="1"></stop><stop offset="0.152344" stop-color="rgb(42.596436%, 58.146667%, 25.282288%)" stop-opacity="1"></stop><stop offset="0.15625" stop-color="rgb(42.845154%, 58.450317%, 25.617981%)" stop-opacity="1"></stop><stop offset="0.160156" stop-color="rgb(43.093872%, 58.753967%, 25.952148%)" stop-opacity="1"></stop><stop offset="0.164062" stop-color="rgb(43.34259%, 59.057617%, 26.287842%)" stop-opacity="1"></stop><stop offset="0.167969" stop-color="rgb(43.591309%, 59.361267%, 26.623535%)" stop-opacity="1"></stop><stop offset="0.171875" stop-color="rgb(43.840027%, 59.666443%, 26.959229%)" stop-opacity="1"></stop><stop offset="0.175781" stop-color="rgb(44.088745%, 59.970093%, 27.294922%)" stop-opacity="1"></stop><stop offset="0.179687" stop-color="rgb(44.337463%, 60.273743%, 27.630615%)" stop-opacity="1"></stop><stop offset="0.183594" stop-color="rgb(44.586182%, 60.577393%, 27.964783%)" stop-opacity="1"></stop><stop offset="0.1875" stop-color="rgb(44.8349%, 60.881042%, 28.300476%)" stop-opacity="1"></stop><stop offset="0.191406" stop-color="rgb(45.083618%, 61.184692%, 28.636169%)" stop-opacity="1"></stop><stop offset="0.195312" stop-color="rgb(45.332336%, 61.488342%, 28.971863%)" stop-opacity="1"></stop><stop offset="0.199219" stop-color="rgb(45.581055%, 61.791992%, 29.307556%)" stop-opacity="1"></stop><stop offset="0.203125" stop-color="rgb(45.829773%, 62.095642%, 29.64325%)" stop-opacity="1"></stop><stop offset="0.207031" stop-color="rgb(46.078491%, 62.399292%, 29.977417%)" stop-opacity="1"></stop><stop offset="0.210937" stop-color="rgb(46.327209%, 62.702942%, 30.31311%)" stop-opacity="1"></stop><stop offset="0.214844" stop-color="rgb(46.575928%, 63.006592%, 30.648804%)" stop-opacity="1"></stop><stop offset="0.21875" stop-color="rgb(46.824646%, 63.311768%, 30.984497%)" stop-opacity="1"></stop><stop offset="0.222656" stop-color="rgb(47.073364%, 63.615417%, 31.32019%)" stop-opacity="1"></stop><stop offset="0.226562" stop-color="rgb(47.322083%, 63.919067%, 31.655884%)" stop-opacity="1"></stop><stop offset="0.230469" stop-color="rgb(47.569275%, 64.222717%, 31.990051%)" stop-opacity="1"></stop><stop offset="0.234375" stop-color="rgb(47.817993%, 64.526367%, 32.325745%)" stop-opacity="1"></stop><stop offset="0.238281" stop-color="rgb(48.066711%, 64.830017%, 32.661438%)" stop-opacity="1"></stop><stop offset="0.242187" stop-color="rgb(48.31543%, 65.133667%, 32.997131%)" stop-opacity="1"></stop><stop offset="0.246094" stop-color="rgb(48.564148%, 65.437317%, 33.332825%)" stop-opacity="1"></stop><stop offset="0.25" stop-color="rgb(48.812866%, 65.740967%, 33.668518%)" stop-opacity="1"></stop><stop offset="0.253906" stop-color="rgb(49.061584%, 66.044617%, 34.004211%)" stop-opacity="1"></stop><stop offset="0.257812" stop-color="rgb(49.310303%, 66.349792%, 34.339905%)" stop-opacity="1"></stop><stop offset="0.261719" stop-color="rgb(49.559021%, 66.653442%, 34.674072%)" stop-opacity="1"></stop><stop offset="0.265625" stop-color="rgb(49.807739%, 66.957092%, 35.009766%)" stop-opacity="1"></stop><stop offset="0.269531" stop-color="rgb(50.056458%, 67.260742%, 35.345459%)" stop-opacity="1"></stop><stop offset="0.273438" stop-color="rgb(50.305176%, 67.564392%, 35.681152%)" stop-opacity="1"></stop><stop offset="0.277344" stop-color="rgb(50.553894%, 67.868042%, 36.016846%)" stop-opacity="1"></stop><stop offset="0.28125" stop-color="rgb(50.802612%, 68.171692%, 36.352539%)" stop-opacity="1"></stop><stop offset="0.285156" stop-color="rgb(51.051331%, 68.475342%, 36.686707%)" stop-opacity="1"></stop><stop offset="0.289062" stop-color="rgb(51.300049%, 68.778992%, 37.0224%)" stop-opacity="1"></stop><stop offset="0.292969" stop-color="rgb(51.548767%, 69.082642%, 37.358093%)" stop-opacity="1"></stop><stop offset="0.296875" stop-color="rgb(51.797485%, 69.386292%, 37.693787%)" stop-opacity="1"></stop><stop offset="0.300781" stop-color="rgb(52.046204%, 69.689941%, 38.02948%)" stop-opacity="1"></stop><stop offset="0.304687" stop-color="rgb(52.294922%, 69.995117%, 38.365173%)" stop-opacity="1"></stop><stop offset="0.308594" stop-color="rgb(52.54364%, 70.298767%, 38.699341%)" stop-opacity="1"></stop><stop offset="0.3125" stop-color="rgb(52.792358%, 70.602417%, 39.035034%)" stop-opacity="1"></stop><stop offset="0.316406" stop-color="rgb(53.041077%, 70.906067%, 39.370728%)" stop-opacity="1"></stop><stop offset="0.320312" stop-color="rgb(53.289795%, 71.209717%, 39.706421%)" stop-opacity="1"></stop><stop offset="0.324219" stop-color="rgb(53.538513%, 71.513367%, 40.042114%)" stop-opacity="1"></stop><stop offset="0.328125" stop-color="rgb(53.787231%, 71.817017%, 40.377808%)" stop-opacity="1"></stop><stop offset="0.332031" stop-color="rgb(54.116821%, 72.128296%, 40.794373%)" stop-opacity="1"></stop><stop offset="0.335937" stop-color="rgb(54.446411%, 72.441101%, 41.210938%)" stop-opacity="1"></stop><stop offset="0.339844" stop-color="rgb(54.91333%, 72.766113%, 41.764832%)" stop-opacity="1"></stop><stop offset="0.34375" stop-color="rgb(55.381775%, 73.091125%, 42.318726%)" stop-opacity="1"></stop><stop offset="0.347656" stop-color="rgb(55.848694%, 73.416138%, 42.87262%)" stop-opacity="1"></stop><stop offset="0.351562" stop-color="rgb(56.317139%, 73.74115%, 43.42804%)" stop-opacity="1"></stop><stop offset="0.355469" stop-color="rgb(56.784058%, 74.066162%, 43.981934%)" stop-opacity="1"></stop><stop offset="0.359375" stop-color="rgb(57.252502%, 74.391174%, 44.535828%)" stop-opacity="1"></stop><stop offset="0.363281" stop-color="rgb(57.719421%, 74.716187%, 45.089722%)" stop-opacity="1"></stop><stop offset="0.367187" stop-color="rgb(58.187866%, 75.041199%, 45.645142%)" stop-opacity="1"></stop><stop offset="0.371094" stop-color="rgb(58.656311%, 75.366211%, 46.199036%)" stop-opacity="1"></stop><stop offset="0.375" stop-color="rgb(59.124756%, 75.691223%, 46.75293%)" stop-opacity="1"></stop><stop offset="0.378906" stop-color="rgb(59.591675%, 76.016235%, 47.306824%)" stop-opacity="1"></stop><stop offset="0.382812" stop-color="rgb(60.06012%, 76.341248%, 47.862244%)" stop-opacity="1"></stop><stop offset="0.386719" stop-color="rgb(60.527039%, 76.66626%, 48.416138%)" stop-opacity="1"></stop><stop offset="0.390625" stop-color="rgb(60.995483%, 76.991272%, 48.970032%)" stop-opacity="1"></stop><stop offset="0.394531" stop-color="rgb(61.462402%, 77.316284%, 49.523926%)" stop-opacity="1"></stop><stop offset="0.398438" stop-color="rgb(61.930847%, 77.641296%, 50.079346%)" stop-opacity="1"></stop><stop offset="0.402344" stop-color="rgb(62.397766%, 77.966309%, 50.63324%)" stop-opacity="1"></stop><stop offset="0.40625" stop-color="rgb(62.866211%, 78.292847%, 51.18866%)" stop-opacity="1"></stop><stop offset="0.410156" stop-color="rgb(63.33313%, 78.617859%, 51.742554%)" stop-opacity="1"></stop><stop offset="0.414062" stop-color="rgb(63.801575%, 78.942871%, 52.296448%)" stop-opacity="1"></stop><stop offset="0.417969" stop-color="rgb(64.268494%, 79.267883%, 52.850342%)" stop-opacity="1"></stop><stop offset="0.421875" stop-color="rgb(64.736938%, 79.592896%, 53.405762%)" stop-opacity="1"></stop><stop offset="0.425781" stop-color="rgb(65.203857%, 79.917908%, 53.959656%)" stop-opacity="1"></stop><stop offset="0.429688" stop-color="rgb(65.672302%, 80.24292%, 54.51355%)" stop-opacity="1"></stop><stop offset="0.433594" stop-color="rgb(66.139221%, 80.567932%, 55.067444%)" stop-opacity="1"></stop><stop offset="0.4375" stop-color="rgb(66.607666%, 80.892944%, 55.622864%)" stop-opacity="1"></stop><stop offset="0.441406" stop-color="rgb(67.074585%, 81.217957%, 56.176758%)" stop-opacity="1"></stop><stop offset="0.445312" stop-color="rgb(67.54303%, 81.542969%, 56.730652%)" stop-opacity="1"></stop><stop offset="0.449219" stop-color="rgb(68.011475%, 81.867981%, 57.284546%)" stop-opacity="1"></stop><stop offset="0.453125" stop-color="rgb(68.479919%, 82.192993%, 57.839966%)" stop-opacity="1"></stop><stop offset="0.457031" stop-color="rgb(68.946838%, 82.518005%, 58.39386%)" stop-opacity="1"></stop><stop offset="0.460937" stop-color="rgb(69.415283%, 82.843018%, 58.947754%)" stop-opacity="1"></stop><stop offset="0.464844" stop-color="rgb(69.882202%, 83.16803%, 59.501648%)" stop-opacity="1"></stop><stop offset="0.46875" stop-color="rgb(70.350647%, 83.493042%, 60.057068%)" stop-opacity="1"></stop><stop offset="0.472656" stop-color="rgb(70.817566%, 83.818054%, 60.610962%)" stop-opacity="1"></stop><stop offset="0.476562" stop-color="rgb(71.286011%, 84.144592%, 61.164856%)" stop-opacity="1"></stop><stop offset="0.480469" stop-color="rgb(71.75293%, 84.469604%, 61.71875%)" stop-opacity="1"></stop><stop offset="0.484375" stop-color="rgb(72.221375%, 84.794617%, 62.27417%)" stop-opacity="1"></stop><stop offset="0.488281" stop-color="rgb(72.688293%, 85.119629%, 62.828064%)" stop-opacity="1"></stop><stop offset="0.492187" stop-color="rgb(73.156738%, 85.444641%, 63.381958%)" stop-opacity="1"></stop><stop offset="0.496094" stop-color="rgb(73.623657%, 85.769653%, 63.935852%)" stop-opacity="1"></stop><stop offset="0.5" stop-color="rgb(74.092102%, 86.094666%, 64.491272%)" stop-opacity="1"></stop><stop offset="0.503906" stop-color="rgb(74.559021%, 86.419678%, 65.045166%)" stop-opacity="1"></stop><stop offset="0.507812" stop-color="rgb(75.027466%, 86.74469%, 65.59906%)" stop-opacity="1"></stop><stop offset="0.511719" stop-color="rgb(75.494385%, 87.069702%, 66.152954%)" stop-opacity="1"></stop><stop offset="0.515625" stop-color="rgb(75.96283%, 87.394714%, 66.708374%)" stop-opacity="1"></stop><stop offset="0.519531" stop-color="rgb(76.429749%, 87.719727%, 67.262268%)" stop-opacity="1"></stop><stop offset="0.523438" stop-color="rgb(76.898193%, 88.044739%, 67.816162%)" stop-opacity="1"></stop><stop offset="0.527344" stop-color="rgb(77.366638%, 88.369751%, 68.370056%)" stop-opacity="1"></stop><stop offset="0.53125" stop-color="rgb(77.835083%, 88.694763%, 68.925476%)" stop-opacity="1"></stop><stop offset="0.535156" stop-color="rgb(78.302002%, 89.019775%, 69.47937%)" stop-opacity="1"></stop><stop offset="0.539062" stop-color="rgb(78.770447%, 89.344788%, 70.033264%)" stop-opacity="1"></stop><stop offset="0.542969" stop-color="rgb(79.237366%, 89.6698%, 70.587158%)" stop-opacity="1"></stop><stop offset="0.546875" stop-color="rgb(79.705811%, 89.994812%, 71.142578%)" stop-opacity="1"></stop><stop offset="0.550781" stop-color="rgb(80.172729%, 90.319824%, 71.696472%)" stop-opacity="1"></stop><stop offset="0.554688" stop-color="rgb(80.641174%, 90.646362%, 72.250366%)" stop-opacity="1"></stop><stop offset="0.558594" stop-color="rgb(81.108093%, 90.971375%, 72.80426%)" stop-opacity="1"></stop><stop offset="0.5625" stop-color="rgb(81.576538%, 91.296387%, 73.35968%)" stop-opacity="1"></stop><stop offset="0.566406" stop-color="rgb(82.043457%, 91.621399%, 73.913574%)" stop-opacity="1"></stop><stop offset="0.570312" stop-color="rgb(82.511902%, 91.946411%, 74.468994%)" stop-opacity="1"></stop><stop offset="0.574219" stop-color="rgb(82.978821%, 92.271423%, 75.022888%)" stop-opacity="1"></stop><stop offset="0.578125" stop-color="rgb(83.447266%, 92.596436%, 75.576782%)" stop-opacity="1"></stop><stop offset="0.582031" stop-color="rgb(83.914185%, 92.921448%, 76.130676%)" stop-opacity="1"></stop><stop offset="0.585938" stop-color="rgb(84.382629%, 93.24646%, 76.686096%)" stop-opacity="1"></stop><stop offset="0.589844" stop-color="rgb(84.849548%, 93.571472%, 77.23999%)" stop-opacity="1"></stop><stop offset="0.59375" stop-color="rgb(85.317993%, 93.896484%, 77.793884%)" stop-opacity="1"></stop><stop offset="0.597656" stop-color="rgb(85.784912%, 94.221497%, 78.347778%)" stop-opacity="1"></stop><stop offset="0.601562" stop-color="rgb(86.253357%, 94.546509%, 78.903198%)" stop-opacity="1"></stop><stop offset="0.605469" stop-color="rgb(86.721802%, 94.871521%, 79.457092%)" stop-opacity="1"></stop><stop offset="0.609375" stop-color="rgb(87.190247%, 95.196533%, 80.010986%)" stop-opacity="1"></stop><stop offset="0.613281" stop-color="rgb(87.657166%, 95.521545%, 80.56488%)" stop-opacity="1"></stop><stop offset="0.617187" stop-color="rgb(88.12561%, 95.846558%, 81.1203%)" stop-opacity="1"></stop><stop offset="0.621094" stop-color="rgb(88.592529%, 96.17157%, 81.674194%)" stop-opacity="1"></stop><stop offset="0.625" stop-color="rgb(89.060974%, 96.498108%, 82.228088%)" stop-opacity="1"></stop><stop offset="0.628906" stop-color="rgb(89.527893%, 96.82312%, 82.781982%)" stop-opacity="1"></stop><stop offset="0.632812" stop-color="rgb(89.996338%, 97.148132%, 83.337402%)" stop-opacity="1"></stop><stop offset="0.636719" stop-color="rgb(90.463257%, 97.473145%, 83.891296%)" stop-opacity="1"></stop><stop offset="0.640625" stop-color="rgb(90.931702%, 97.798157%, 84.44519%)" stop-opacity="1"></stop><stop offset="0.644531" stop-color="rgb(91.398621%, 98.123169%, 84.999084%)" stop-opacity="1"></stop><stop offset="0.648438" stop-color="rgb(91.867065%, 98.448181%, 85.554504%)" stop-opacity="1"></stop><stop offset="0.652344" stop-color="rgb(92.333984%, 98.773193%, 86.108398%)" stop-opacity="1"></stop><stop offset="0.65625" stop-color="rgb(92.802429%, 99.098206%, 86.662292%)" stop-opacity="1"></stop><stop offset="0.660156" stop-color="rgb(93.269348%, 99.423218%, 87.216187%)" stop-opacity="1"></stop><stop offset="0.664062" stop-color="rgb(93.737793%, 99.74823%, 87.771606%)" stop-opacity="1"></stop><stop offset="0.667969" stop-color="rgb(93.917847%, 99.873352%, 87.985229%)" stop-opacity="1"></stop><stop offset="0.671875" stop-color="rgb(94.099426%, 100%, 88.198853%)" stop-opacity="1"></stop><stop offset="0.6875" stop-color="rgb(94.099426%, 100%, 88.198853%)" stop-opacity="1"></stop><stop offset="0.75" stop-color="rgb(94.099426%, 100%, 88.198853%)" stop-opacity="1"></stop><stop offset="0.923968" stop-color="rgb(94.099426%, 100%, 88.198853%)" stop-opacity="1"></stop><stop offset="1" stop-color="rgb(94.099426%, 100%, 88.198853%)" stop-opacity="1"></stop></linearGradient><clipPath id="ee85ae1eb7"><path clip-rule="nonzero" d="M 130.46875 115.96875 L 228.4375 115.96875 L 228.4375 200 L 130.46875 200 Z M 130.46875 115.96875"></path></clipPath><clipPath id="bf939234d0"><path clip-rule="nonzero" d="M 130.46875 199 L 228.4375 199 L 228.4375 282.46875 L 130.46875 282.46875 Z M 130.46875 199"></path></clipPath></defs><g fill-opacity="1" fill="#ffffff"><g transform="translate(13.266984, 244.71458)"><g><path d="M 78.5625 0 L 63.390625 0 L 27.71875 -50.390625 L 41.296875 -50.390625 C 44.765625 -50.390625 47.847656 -50.632812 50.546875 -51.125 C 53.140625 -51.507812 55.160156 -51.988281 56.609375 -52.5625 C 59.585938 -53.90625 61.945312 -55.878906 63.6875 -58.484375 C 65.414062 -60.984375 66.28125 -63.582031 66.28125 -66.28125 C 66.28125 -68.976562 65.460938 -71.53125 63.828125 -73.9375 C 62.191406 -76.25 59.832031 -78.175781 56.75 -79.71875 C 53.664062 -81.15625 50.101562 -81.875 46.0625 -81.875 L 24.265625 -81.875 L 24.546875 0 L 12.28125 0 L 12.28125 -94.015625 L 46.0625 -94.015625 C 50.59375 -94.015625 54.828125 -93.289062 58.765625 -91.84375 C 62.710938 -90.394531 66.179688 -88.328125 69.171875 -85.640625 C 72.054688 -83.035156 74.316406 -80.050781 75.953125 -76.6875 C 77.492188 -73.3125 78.265625 -69.84375 78.265625 -66.28125 C 78.265625 -60.601562 76.53125 -55.5 73.0625 -50.96875 C 70.175781 -47.125 66.28125 -44 61.375 -41.59375 C 57.613281 -40.238281 54.289062 -39.5625 51.40625 -39.5625 Z M 78.5625 0"></path></g></g></g><g fill-opacity="1" fill="#ffffff"><g transform="translate(88.214742, 244.71458)"><g><path d="M 95.453125 -23.109375 C 91.117188 -15.691406 85.34375 -9.863281 78.125 -5.625 C 70.8125 -1.300781 62.867188 0.859375 54.296875 0.859375 C 45.628906 0.859375 37.6875 -1.300781 30.46875 -5.625 C 23.15625 -9.863281 17.378906 -15.691406 13.140625 -23.109375 C 8.898438 -30.421875 6.78125 -38.410156 6.78125 -47.078125 C 6.78125 -55.640625 8.898438 -63.628906 13.140625 -71.046875 C 17.472656 -78.359375 23.296875 -84.179688 30.609375 -88.515625 C 37.828125 -92.753906 45.722656 -94.875 54.296875 -94.875 C 62.765625 -94.875 70.707031 -92.753906 78.125 -88.515625 C 85.4375 -84.179688 91.210938 -78.359375 95.453125 -71.046875 C 99.691406 -63.628906 101.8125 -55.640625 101.8125 -47.078125 C 101.8125 -38.503906 99.691406 -30.515625 95.453125 -23.109375 Z M 85.0625 -64.984375 C 81.882812 -70.472656 77.550781 -74.851562 72.0625 -78.125 C 66.570312 -81.300781 60.648438 -82.890625 54.296875 -82.890625 C 47.847656 -82.890625 41.925781 -81.300781 36.53125 -78.125 C 31.039062 -74.851562 26.707031 -70.472656 23.53125 -64.984375 C 20.351562 -59.492188 18.765625 -53.523438 18.765625 -47.078125 C 18.765625 -40.523438 20.351562 -34.507812 23.53125 -29.03125 C 26.707031 -23.539062 31.039062 -19.207031 36.53125 -16.03125 C 42.019531 -12.757812 47.941406 -11.125 54.296875 -11.125 C 60.835938 -11.125 66.804688 -12.757812 72.203125 -16.03125 C 77.691406 -19.207031 82.023438 -23.539062 85.203125 -29.03125 C 88.285156 -34.507812 89.828125 -40.523438 89.828125 -47.078125 C 89.828125 -53.523438 88.238281 -59.492188 85.0625 -64.984375 Z M 85.0625 -64.984375"></path></g></g></g><g fill-opacity="1" fill="#ffffff"><g transform="translate(184.246238, 244.71458)"><g><path d="M 7.359375 -94.015625 L 83.46875 -94.015625 L 83.46875 -81.875 L 51.546875 -81.875 L 51.546875 0 L 39.28125 0 L 39.28125 -81.875 L 7.359375 -81.875 Z M 7.359375 -94.015625"></path></g></g></g><g fill-opacity="1" fill="#ffffff"><g transform="translate(262.515407, 244.71458)"><g><path d="M 71.484375 -18.1875 L 28.453125 -18.1875 L 20.078125 0 L 6.78125 0 L 50.828125 -95.015625 L 92.5625 0 L 79.421875 0 Z M 66.28125 -30.1875 L 50.390625 -65.84375 L 33.9375 -30.1875 Z M 66.28125 -30.1875"></path></g></g></g><g clip-path="url(#563e166b07)"><path fill-rule="nonzero" d="M 24.152344 259.851562 L 24.152344 269.742188 L 144.355469 269.742188 L 144.355469 259.851562 Z M 24.152344 259.851562" fill="url(#f9760e3a53)"></path></g><g fill-opacity="1" fill="#ffffff"><g transform="translate(146.683281, 268.412428)"><g><path d="M 1.046875 0 L 1.046875 -8.671875 L 3.015625 -8.671875 L 3.015625 -5.34375 L 3.75 -5.34375 C 4.238281 -5.34375 4.597656 -5.421875 4.828125 -5.578125 C 5.054688 -5.734375 5.242188 -6.015625 5.390625 -6.421875 L 6.203125 -8.671875 L 8.34375 -8.671875 L 7.140625 -5.59375 C 7.023438 -5.3125 6.898438 -5.054688 6.765625 -4.828125 C 6.628906 -4.609375 6.476562 -4.414062 6.3125 -4.25 L 8.65625 0 L 6.359375 0 L 4.5 -3.515625 C 4.425781 -3.503906 4.351562 -3.5 4.28125 -3.5 C 4.207031 -3.5 4.128906 -3.5 4.046875 -3.5 L 3.015625 -3.5 L 3.015625 0 Z M 1.046875 0"></path></g></g></g><g fill-opacity="1" fill="#ffffff"><g transform="translate(158.704995, 268.412428)"><g><path d="M 0.109375 0 L 3.5625 -8.671875 L 5.484375 -8.671875 L 8.9375 0 L 6.828125 0 L 6.25 -1.5 L 2.796875 -1.5 L 2.21875 0 Z M 3.3125 -3.046875 L 5.75 -3.046875 L 4.515625 -6.21875 Z M 3.3125 -3.046875"></path></g></g></g><g fill-opacity="1" fill="#ffffff"><g transform="translate(170.763884, 268.412428)"><g><path d="M 1.046875 0 L 1.046875 -8.671875 L 3.015625 -8.671875 L 3.015625 -1.84375 L 6.796875 -1.84375 L 6.796875 0 Z M 1.046875 0"></path></g></g></g><g fill-opacity="1" fill="#ffffff"><g transform="translate(180.914174, 268.412428)"><g><path d="M 1.046875 0 L 1.046875 -8.671875 L 3.015625 -8.671875 L 3.015625 0 Z M 0.90625 -10.5 C 0.90625 -10.820312 1.007812 -11.082031 1.21875 -11.28125 C 1.425781 -11.488281 1.695312 -11.59375 2.03125 -11.59375 C 2.363281 -11.59375 2.628906 -11.488281 2.828125 -11.28125 C 3.035156 -11.082031 3.140625 -10.820312 3.140625 -10.5 C 3.140625 -10.1875 3.035156 -9.925781 2.828125 -9.71875 C 2.628906 -9.519531 2.363281 -9.421875 2.03125 -9.421875 C 1.695312 -9.421875 1.425781 -9.519531 1.21875 -9.71875 C 1.007812 -9.925781 0.90625 -10.1875 0.90625 -10.5 Z M 0.90625 -10.5"></path></g></g></g><g fill-opacity="1" fill="#ffffff"><g transform="translate(187.978471, 268.412428)"><g><path d="M 3.125 0 L 3.125 -6.828125 L 0.375 -6.828125 L 0.375 -8.671875 L 7.84375 -8.671875 L 7.84375 -6.828125 L 5.09375 -6.828125 L 5.09375 0 Z M 3.125 0"></path></g></g></g><g fill-opacity="1" fill="#ffffff"><g transform="translate(199.206998, 268.412428)"><g><path d="M 1.046875 0 L 1.046875 -8.671875 L 6.734375 -8.671875 L 6.734375 -7.015625 L 3 -7.015625 L 3 -5.21875 L 6.40625 -5.21875 L 6.40625 -3.5625 L 3 -3.5625 L 3 -1.671875 L 6.875 -1.671875 L 6.875 0 Z M 1.046875 0"></path></g></g></g><g fill-opacity="1" fill="#ffffff"><g transform="translate(209.729092, 268.412428)"><g></g></g></g><g fill-opacity="1" fill="#ffffff"><g transform="translate(215.653187, 268.412428)"><g><path d="M 3.6875 0.171875 C 2.695312 0.171875 1.910156 -0.0390625 1.328125 -0.46875 C 0.753906 -0.90625 0.46875 -1.5 0.46875 -2.25 C 0.46875 -3.25 1.015625 -4.039062 2.109375 -4.625 C 1.773438 -5 1.53125 -5.347656 1.375 -5.671875 C 1.21875 -5.992188 1.140625 -6.328125 1.140625 -6.671875 C 1.140625 -7.109375 1.253906 -7.488281 1.484375 -7.8125 C 1.710938 -8.132812 2.035156 -8.382812 2.453125 -8.5625 C 2.878906 -8.75 3.367188 -8.84375 3.921875 -8.84375 C 4.492188 -8.84375 4.988281 -8.75 5.40625 -8.5625 C 5.832031 -8.375 6.160156 -8.109375 6.390625 -7.765625 C 6.628906 -7.421875 6.75 -7.015625 6.75 -6.546875 C 6.75 -5.472656 6.113281 -4.648438 4.84375 -4.078125 L 6.109375 -2.75 C 6.328125 -3.164062 6.441406 -3.640625 6.453125 -4.171875 L 8.078125 -4.171875 C 8.066406 -3.660156 7.988281 -3.179688 7.84375 -2.734375 C 7.707031 -2.296875 7.515625 -1.898438 7.265625 -1.546875 L 8.75 0 L 6.671875 0 L 6.171875 -0.515625 C 5.828125 -0.296875 5.445312 -0.125 5.03125 0 C 4.613281 0.113281 4.164062 0.171875 3.6875 0.171875 Z M 2.3125 -2.359375 C 2.3125 -2.054688 2.4375 -1.816406 2.6875 -1.640625 C 2.9375 -1.460938 3.285156 -1.375 3.734375 -1.375 C 4.179688 -1.375 4.597656 -1.460938 4.984375 -1.640625 L 3.203125 -3.46875 C 2.609375 -3.195312 2.3125 -2.828125 2.3125 -2.359375 Z M 2.90625 -6.546875 C 2.90625 -6.390625 2.960938 -6.21875 3.078125 -6.03125 C 3.203125 -5.84375 3.421875 -5.578125 3.734375 -5.234375 C 4.171875 -5.398438 4.488281 -5.582031 4.6875 -5.78125 C 4.882812 -5.988281 4.984375 -6.222656 4.984375 -6.484375 C 4.984375 -6.742188 4.882812 -6.945312 4.6875 -7.09375 C 4.5 -7.238281 4.242188 -7.3125 3.921875 -7.3125 C 3.609375 -7.3125 3.359375 -7.242188 3.171875 -7.109375 C 2.992188 -6.972656 2.90625 -6.785156 2.90625 -6.546875 Z M 2.90625 -6.546875"></path></g></g></g><g fill-opacity="1" fill="#ffffff"><g transform="translate(227.749268, 268.412428)"><g></g></g></g><g fill-opacity="1" fill="#ffffff"><g transform="translate(233.673363, 268.412428)"><g><path d="M 1.046875 0 L 1.046875 -8.671875 L 4.46875 -8.671875 C 5.382812 -8.671875 6.1875 -8.488281 6.875 -8.125 C 7.5625 -7.757812 8.09375 -7.25 8.46875 -6.59375 C 8.851562 -5.945312 9.046875 -5.195312 9.046875 -4.34375 C 9.046875 -3.46875 8.851562 -2.707031 8.46875 -2.0625 C 8.09375 -1.414062 7.5625 -0.910156 6.875 -0.546875 C 6.1875 -0.179688 5.382812 0 4.46875 0 Z M 3.015625 -1.8125 L 4.4375 -1.8125 C 4.945312 -1.8125 5.394531 -1.914062 5.78125 -2.125 C 6.175781 -2.332031 6.484375 -2.625 6.703125 -3 C 6.921875 -3.382812 7.03125 -3.832031 7.03125 -4.34375 C 7.03125 -4.851562 6.921875 -5.296875 6.703125 -5.671875 C 6.484375 -6.046875 6.175781 -6.335938 5.78125 -6.546875 C 5.382812 -6.753906 4.925781 -6.859375 4.40625 -6.859375 L 3.015625 -6.859375 Z M 3.015625 -1.8125"></path></g></g></g><g fill-opacity="1" fill="#ffffff"><g transform="translate(246.252791, 268.412428)"><g><path d="M 0.109375 0 L 3.5625 -8.671875 L 5.484375 -8.671875 L 8.9375 0 L 6.828125 0 L 6.25 -1.5 L 2.796875 -1.5 L 2.21875 0 Z M 3.3125 -3.046875 L 5.75 -3.046875 L 4.515625 -6.21875 Z M 3.3125 -3.046875"></path></g></g></g><g fill-opacity="1" fill="#ffffff"><g transform="translate(258.31168, 268.412428)"><g><path d="M 1.046875 0 L 1.046875 -8.671875 L 2.71875 -8.671875 L 6.546875 -3.390625 L 6.546875 -8.671875 L 8.5 -8.671875 L 8.5 0 L 6.828125 0 L 3 -5.3125 L 3 0 Z M 1.046875 0"></path></g></g></g><g fill-opacity="1" fill="#ffffff"><g transform="translate(270.866319, 268.412428)"><g><path d="M 1.046875 0 L 1.046875 -8.671875 L 3.015625 -8.671875 L 3.015625 0 Z M 1.046875 0"></path></g></g></g><g fill-opacity="1" fill="#ffffff"><g transform="translate(277.930616, 268.412428)"><g><path d="M 3.125 3.375 L 3.125 2.265625 L 4 2.265625 C 4.320312 2.265625 4.484375 2.140625 4.484375 1.890625 C 4.484375 1.628906 4.320312 1.5 4 1.5 L 3.515625 1.5 L 3.28125 1.1875 L 3.625 0.15625 C 2.664062 0.0820312 1.910156 -0.210938 1.359375 -0.734375 C 0.816406 -1.253906 0.546875 -1.929688 0.546875 -2.765625 L 2.484375 -2.765625 C 2.484375 -2.347656 2.625 -2.023438 2.90625 -1.796875 C 3.1875 -1.566406 3.566406 -1.453125 4.046875 -1.453125 C 4.460938 -1.453125 4.789062 -1.53125 5.03125 -1.6875 C 5.269531 -1.851562 5.390625 -2.078125 5.390625 -2.359375 C 5.390625 -2.671875 5.242188 -2.921875 4.953125 -3.109375 C 4.660156 -3.296875 4.210938 -3.457031 3.609375 -3.59375 C 2.585938 -3.8125 1.832031 -4.140625 1.34375 -4.578125 C 0.863281 -5.015625 0.625 -5.582031 0.625 -6.28125 C 0.625 -7.070312 0.910156 -7.695312 1.484375 -8.15625 C 2.066406 -8.613281 2.859375 -8.84375 3.859375 -8.84375 C 4.535156 -8.84375 5.125 -8.722656 5.625 -8.484375 C 6.132812 -8.253906 6.523438 -7.925781 6.796875 -7.5 C 7.078125 -7.070312 7.21875 -6.566406 7.21875 -5.984375 L 5.328125 -5.984375 C 5.328125 -6.367188 5.195312 -6.671875 4.9375 -6.890625 C 4.6875 -7.117188 4.332031 -7.234375 3.875 -7.234375 C 3.46875 -7.234375 3.144531 -7.148438 2.90625 -6.984375 C 2.664062 -6.828125 2.546875 -6.601562 2.546875 -6.3125 C 2.546875 -6.050781 2.675781 -5.828125 2.9375 -5.640625 C 3.195312 -5.460938 3.660156 -5.296875 4.328125 -5.140625 C 5.410156 -4.890625 6.191406 -4.546875 6.671875 -4.109375 C 7.148438 -3.679688 7.390625 -3.125 7.390625 -2.4375 C 7.390625 -1.707031 7.148438 -1.117188 6.671875 -0.671875 C 6.191406 -0.222656 5.535156 0.046875 4.703125 0.140625 L 4.546875 0.609375 C 4.929688 0.671875 5.226562 0.828125 5.4375 1.078125 C 5.65625 1.328125 5.765625 1.628906 5.765625 1.984375 C 5.765625 2.398438 5.625 2.734375 5.34375 2.984375 C 5.070312 3.242188 4.675781 3.375 4.15625 3.375 Z M 3.125 3.375"></path></g></g></g><g fill-opacity="1" fill="#ffffff"><g transform="translate(288.886479, 268.412428)"><g><path d="M 1.046875 0 L 1.046875 -8.671875 L 2.71875 -8.671875 L 5.796875 -4.171875 L 8.875 -8.671875 L 10.53125 -8.671875 L 10.53125 0 L 8.578125 0 L 8.578125 -5.21875 L 6.46875 -2.140625 L 5.109375 -2.140625 L 3 -5.234375 L 3 0 Z M 1.046875 0"></path></g></g></g><g fill-opacity="1" fill="#ffffff"><g transform="translate(303.473662, 268.412428)"><g><path d="M 0.109375 0 L 3.5625 -8.671875 L 5.484375 -8.671875 L 8.9375 0 L 6.828125 0 L 6.25 -1.5 L 2.796875 -1.5 L 2.21875 0 Z M 3.3125 -3.046875 L 5.75 -3.046875 L 4.515625 -6.21875 Z M 3.3125 -3.046875"></path></g></g></g><g fill-opacity="1" fill="#ffffff"><g transform="translate(315.532552, 268.412428)"><g><path d="M 1.046875 0 L 1.046875 -8.671875 L 2.71875 -8.671875 L 6.546875 -3.390625 L 6.546875 -8.671875 L 8.5 -8.671875 L 8.5 0 L 6.828125 0 L 3 -5.3125 L 3 0 Z M 1.046875 0"></path></g></g></g><g fill-opacity="1" fill="#ffffff"><g transform="translate(328.08719, 268.412428)"><g><path d="M 1.046875 0 L 1.046875 -8.671875 L 3.015625 -8.671875 L 3.015625 -1.84375 L 6.796875 -1.84375 L 6.796875 0 Z M 1.046875 0"></path></g></g></g><g fill-opacity="1" fill="#ffffff"><g transform="translate(338.23748, 268.412428)"><g><path d="M 1.046875 0 L 1.046875 -8.671875 L 3.015625 -8.671875 L 3.015625 0 Z M 1.046875 0"></path></g></g></g><g fill-opacity="1" fill="#ffffff"><g transform="translate(345.301777, 268.412428)"><g><path d="M 1.046875 0 L 1.046875 -8.671875 L 3.015625 -8.671875 L 3.015625 -5.34375 L 3.75 -5.34375 C 4.238281 -5.34375 4.597656 -5.421875 4.828125 -5.578125 C 5.054688 -5.734375 5.242188 -6.015625 5.390625 -6.421875 L 6.203125 -8.671875 L 8.34375 -8.671875 L 7.140625 -5.59375 C 7.023438 -5.3125 6.898438 -5.054688 6.765625 -4.828125 C 6.628906 -4.609375 6.476562 -4.414062 6.3125 -4.25 L 8.65625 0 L 6.359375 0 L 4.5 -3.515625 C 4.425781 -3.503906 4.351562 -3.5 4.28125 -3.5 C 4.207031 -3.5 4.128906 -3.5 4.046875 -3.5 L 3.015625 -3.5 L 3.015625 0 Z M 1.046875 0"></path></g></g></g><g clip-path="url(#ee85ae1eb7)"><path fill-rule="nonzero" fill-opacity="1" d="M 173.511719 198.28125 C 173.511719 191.492188 171.546875 185.160156 168.15625 179.828125 L 166.910156 181.496094 L 160.609375 183.828125 L 162.222656 177.304688 L 164.558594 175.117188 C 158.261719 168.1875 149.171875 163.835938 139.070312 163.835938 C 136.097656 163.835938 133.214844 164.214844 130.464844 164.921875 C 133.878906 163.25 137.589844 162.09375 141.496094 161.539062 L 145.535156 115.980469 L 149.554688 161.273438 C 157.4375 161.863281 164.632812 164.921875 170.375 169.671875 L 188.195312 152.980469 L 173.542969 172.613281 C 179.332031 178.65625 183.097656 186.652344 183.75 195.515625 L 228.4375 199.480469 L 173.488281 199.480469 C 173.503906 199.082031 173.511719 198.679688 173.511719 198.28125 Z M 173.511719 198.28125" fill="#6c9805"></path></g><g clip-path="url(#bf939234d0)"><path fill-rule="nonzero" fill-opacity="1" d="M 139.070312 232.722656 C 140.328125 232.722656 141.574219 232.652344 142.796875 232.519531 L 142.816406 232.488281 C 142.863281 232.496094 142.914062 232.496094 142.960938 232.503906 C 151.03125 231.59375 158.257812 227.898438 163.65625 222.398438 L 162.226562 221.058594 L 160.609375 214.535156 L 166.914062 216.867188 L 167.527344 217.6875 C 171.09375 212.472656 173.261719 206.222656 173.492188 199.480469 L 228.4375 199.480469 L 183.488281 203.46875 C 182.332031 211.742188 178.445312 219.136719 172.773438 224.71875 L 188.195312 245.382812 L 169.335938 227.71875 C 163.527344 232.179688 156.363281 234.964844 148.566406 235.34375 L 149.03125 236.21875 L 144.933594 282.382812 L 140.839844 236.21875 L 141.476562 235.015625 C 137.578125 234.460938 133.875 233.304688 130.464844 231.636719 C 133.214844 232.347656 136.097656 232.722656 139.070312 232.722656 Z M 139.070312 232.722656" fill="#186aa4"></path></g></svg>